# xmcd CD database file
#
# Track frame offsets:
#	150
#	22112
#	44002
#	73502
#
# Disc length: 1064 seconds
#
# Revision: 0
# Processed by: cddbd v1.5.2PL0 Copyright (c) Steve Scherf et al.
# Submitted via: CD2WAV32(JP) R3.22
#
DISCID=35042604
DTITLE=中川翔子 - snow tears
DYEAR=2008
DGENRE=Ballad
TTITLE0=snow tears
TTITLE1=君にメロロン
TTITLE2=Winter Wish
TTITLE3=snow tears -TV Mix-
EXTD=
EXTT0=「墓場鬼太郎」 エンディングテーマ
EXTT1=「墓場鬼太郎」 挿入歌
EXTT2=
EXTT3=
PLAYORDER=
